<?xml version="1.0" encoding="UTF-8"?>
<svg version="1.1" xmlns="http://www.w3.org/2000/svg" width="180" height="180">
<path d="M0 0 C59.4 0 118.8 0 180 0 C180 59.4 180 118.8 180 180 C120.6 180 61.2 180 0 180 C0 120.6 0 61.2 0 0 Z " fill="#FECD12" transform="translate(0,0)"/>
<path d="M0 0 C11.77702716 3.47458876 22.96957612 10.82037638 32 19 C32.91394531 19.80953125 33.82789063 20.6190625 34.76953125 21.453125 C44.39113555 30.45610358 49.98527999 40.88109331 55 53 C55.02719556 50.62492145 55.04693247 48.25016036 55.0625 45.875 C55.07506836 44.87726563 55.07506836 44.87726563 55.08789062 43.859375 C55.10782292 39.79318646 54.78890161 35.9879908 54 32 C67.45913837 43.26172802 80.12322831 57.72754227 82 76 C83.23509779 97.98915176 79.61295071 118.0390318 68 137 C63.07839412 136.54584051 59.91932029 134.06343383 56.1875 131.0625 C55.5672998 130.56451904 54.94709961 130.06653809 54.30810547 129.5534668 C43.99648732 121.05845205 38.55651779 110.91104612 33 99 C32.49210937 100.0621875 31.98421875 101.124375 31.4609375 102.21875 C24.16729624 117.27992323 24.16729624 117.27992323 19 123 C18.26007813 123.81984375 17.52015625 124.6396875 16.7578125 125.484375 C11.37663308 131.150539 5.92148211 135.37726681 -1 139 C-5.45663422 133.80532445 -7.59518886 128.34068537 -10 122 C-10.32484375 121.21753906 -10.6496875 120.43507813 -10.984375 119.62890625 C-14.95618986 108.81882523 -14.61940767 94.52405376 -10 84 C-9.6596875 83.22011719 -9.319375 82.44023438 -8.96875 81.63671875 C-6.65533881 76.73635113 -3.89610737 72.20095873 -1 67.625 C8.44712878 52.48102041 11.26003672 36.46779409 8.50390625 18.82421875 C6.82751582 12.88581875 3.89937847 7.42329786 1 2 C0.67 1.34 0.34 0.68 0 0 Z " fill="#EC6714" transform="translate(57,21)"/>
<path d="M0 0 C1.65 0 3.3 0 5 0 C5.01401855 1.15447632 5.01401855 1.15447632 5.02832031 2.33227539 C5.37462144 25.03706754 6.30311666 44.39013133 22.62890625 61.70703125 C27.57568648 66.49082037 32.95528087 70.68515403 39 74 C38.67 75.65 38.34 77.3 38 79 C33.07839412 78.54584051 29.91932029 76.06343383 26.1875 73.0625 C25.5672998 72.56451904 24.94709961 72.06653809 24.30810547 71.5534668 C13.99648732 63.05845205 8.55651779 52.91104612 3 41 C2.23816406 42.59328125 2.23816406 42.59328125 1.4609375 44.21875 C-5.83270376 59.27992323 -5.83270376 59.27992323 -11 65 C-11.73992187 65.81984375 -12.47984375 66.6396875 -13.2421875 67.484375 C-18.62336692 73.150539 -24.07851789 77.37726681 -31 81 C-31.99 79.68 -32.98 78.36 -34 77 C-31.67105228 74.49016314 -29.16392984 72.69703997 -26.3125 70.8125 C-12.69772375 61.31381889 -4.62057625 48.26912905 -1.44360352 32.04052734 C-0.56525835 26.02021325 -0.51962731 19.94934701 -0.375 13.875 C-0.33671699 12.5234152 -0.29765973 11.17185209 -0.2578125 9.8203125 C-0.16428946 6.54700609 -0.07853802 3.27369443 0 0 Z " fill="#0A0500" transform="translate(87,79)"/>
<path d="M0 0 C1.65 0.33 3.3 0.66 5 1 C4.44068535 6.33765708 3.13839724 10.75413269 1.0625 15.6875 C0.79759766 16.33783203 0.53269531 16.98816406 0.25976562 17.65820312 C-1.04526433 20.83496338 -2.40551065 23.95737539 -4 27 C-6.4375 26.625 -6.4375 26.625 -9 26 C-9.33 25.34 -9.66 24.68 -10 24 C-8.92578125 21.6015625 -8.92578125 21.6015625 -7.3125 18.625 C-4.17711883 12.58811224 -1.95993141 6.50236067 0 0 Z " fill="#0C0501" transform="translate(114,96)"/>
<path d="M0 0 C1.65 0.33 3.3 0.66 5 1 C3.72315259 10.158078 0.37157104 18.45444574 -3 27 C-7 27 -7 27 -9 26 C-7.63381937 21.79393463 -6.12010418 17.67697189 -4.5 13.5625 C-2.75978028 9.07591582 -1.19215555 4.66024441 0 0 Z " fill="#0D0501" transform="translate(67,96)"/>
</svg>
