<?xml version="1.0" encoding="UTF-8"?>
<svg version="1.1" xmlns="http://www.w3.org/2000/svg" width="180" height="180">
<path d="M0 0 C59.4 0 118.8 0 180 0 C180 59.4 180 118.8 180 180 C120.6 180 61.2 180 0 180 C0 120.6 0 61.2 0 0 Z " fill="#78B145" transform="translate(0,0)"/>
<path d="M0 0 C59.4 0 118.8 0 180 0 C180 59.4 180 118.8 180 180 C120.6 180 61.2 180 0 180 C0 120.6 0 61.2 0 0 Z M60.25 18.875 C55.56902064 25.37562906 55.56902064 25.37562906 54 33 C53.34515625 32.94199219 52.6903125 32.88398437 52.015625 32.82421875 C41.61060596 32.30984634 33.56305049 35.4752654 25.625 42.1875 C18.93923652 48.63678953 13.72585818 56.57699912 12.6640625 65.97265625 C12.58588501 72.15649582 13.15336803 76.88657207 15.375 82.6875 C17.28177192 88.21514542 17.28177192 88.21514542 16.03515625 91.6875 C14.96667867 93.35944536 13.84545092 94.9987779 12.67578125 96.6015625 C8.40403837 102.71543227 6.92543352 110.66696938 8 118 C10.84159217 129.2643628 16.1759428 139.24646771 26.37890625 145.4453125 C27.91821217 146.25173636 29.46227286 147.04917223 31.01171875 147.8359375 C33.69712983 149.40814281 35.30550134 151.42141508 37 154 C50.98950655 147.68529218 61.93449559 133.13456454 70.75 121.0625 C71.50966064 120.0271814 71.50966064 120.0271814 72.28466797 118.97094727 C77.10138338 112.20779358 80.81785117 105.31876046 85 98 C85.33 123.41 85.66 148.82 86 175 C88.64 175 91.28 175 94 175 C94.33 149.26 94.66 123.52 95 97 C99.95 104.92 99.95 104.92 105 113 C111.65758606 121.32198258 118.75729664 128.92892751 126.25 136.5 C127.36665039 137.63091064 127.36665039 137.63091064 128.50585938 138.78466797 C135.18664982 145.61587577 135.18664982 145.61587577 143 151 C146.71368887 149.76210371 147.77354181 148.14775123 150 145 C150 144.34 150 143.68 150 143 C150.680625 142.814375 151.36125 142.62875 152.0625 142.4375 C160.50076394 138.30813679 164.57750162 130.42991211 168 122 C170.66569249 111.51602647 169.05814323 102.46086508 164 93 C163.44570312 92.27425781 162.89140625 91.54851562 162.3203125 90.80078125 C161 89 161 89 161.1875 86.6875 C161.78351897 84.71605263 162.3997223 82.75067782 163.02734375 80.7890625 C165.52072954 71.07587289 165.15858941 60.7287996 160 52 C153.66580461 42.2068085 145.71636779 36.50405926 134.47265625 33.45703125 C130.58471496 32.73840703 126.94407363 32.80915773 123 33 C122.86464844 32.45472656 122.72929688 31.90945312 122.58984375 31.34765625 C119.92089961 21.99836092 114.62315816 15.25413771 106.30078125 10.21875 C89.77544326 1.46509049 72.80220168 5.7522437 60.25 18.875 Z " fill="#FCFCFB" transform="translate(0,0)"/>
<path d="M0 0 C2.64 0 5.28 0 8 0 C8 8.91 8 17.82 8 27 C24.83 27 41.66 27 59 27 C59 29.64 59 32.28 59 35 C43.16 35 27.32 35 11 35 C24.99715666 58.99512571 41.62078805 77.6484268 64 94 C62.58208437 96.93446886 61.01667393 99.43332409 59 102 C54.44083359 100.56114381 51.4510047 97.99464571 48.0625 94.75 C47.50328857 94.22204834 46.94407715 93.69409668 46.36791992 93.15014648 C44.56954671 91.44265316 42.78421319 89.72227468 41 88 C40.40380859 87.43104004 39.80761719 86.86208008 39.19335938 86.27587891 C26.869739 74.48298867 18.03336452 62.67921735 9 48 C8.67 73.74 8.34 99.48 8 126 C5.36 126 2.72 126 0 126 C-0.33 100.59 -0.66 75.18 -1 49 C-3.64 53.62 -6.28 58.24 -9 63 C-10.77518674 65.65674206 -12.51917269 68.21223188 -14.4375 70.75 C-14.89922607 71.37068359 -15.36095215 71.99136719 -15.83666992 72.63085938 C-19.33103457 77.2651997 -23.06411516 81.62827231 -27.02734375 85.87109375 C-28.735545 87.71459807 -30.30687919 89.60123209 -31.875 91.5625 C-35.92755375 96.32083558 -40.80569559 100.53974585 -46 104 C-50 104 -50 104 -51.8125 102.25 C-53 100 -53 100 -52.85546875 98.08984375 C-51.67808009 95.21357464 -49.99240666 94.14718824 -47.5 92.3125 C-32.80581618 80.983556 -21.84279891 66.14686353 -12.3125 50.375 C-11.94382813 49.7655957 -11.57515625 49.15619141 -11.1953125 48.52832031 C-8.55549939 44.09448258 -6.3218819 39.64376381 -4 35 C-19.18 35 -34.36 35 -50 35 C-50 32.36 -50 29.72 -50 27 C-33.5 27 -17 27 0 27 C0 18.09 0 9.18 0 0 Z " fill="#020302" transform="translate(86,49)"/>
</svg>
